<svg width="13" height="14" viewBox="0 0 13 14" fill="none" xmlns="http://www.w3.org/2000/svg">
<path d="M8.46 6.48474V2.16158L6.345 0L4.23 2.16158V3.60263H0V13.69H12.69V6.48474H8.46ZM2.82 12.2489H1.41V10.8079H2.82V12.2489ZM2.82 9.36684H1.41V7.92579H2.82V9.36684ZM2.82 6.48474H1.41V5.04368H2.82V6.48474ZM7.05 12.2489H5.64V10.8079H7.05V12.2489ZM7.05 9.36684H5.64V7.92579H7.05V9.36684ZM7.05 6.48474H5.64V5.04368H7.05V6.48474ZM7.05 3.60263H5.64V2.16158H7.05V3.60263ZM11.28 12.2489H9.87V10.8079H11.28V12.2489ZM11.28 9.36684H9.87V7.92579H11.28V9.36684Z" fill="#AAAAAA"/>
</svg>
