<svg width="12" height="14" viewBox="0 0 12 14" fill="none" xmlns="http://www.w3.org/2000/svg">
<path d="M9.71436 4.44061H9.02686V3.17186C9.02686 1.421 7.48686 0 5.58936 0C3.69186 0 2.15186 1.421 2.15186 3.17186V4.44061H1.46436C0.708105 4.44061 0.0893555 5.01155 0.0893555 5.70936V12.0531C0.0893555 12.7509 0.708105 13.3218 1.46436 13.3218H9.71436C10.4706 13.3218 11.0894 12.7509 11.0894 12.0531V5.70936C11.0894 5.01155 10.4706 4.44061 9.71436 4.44061ZM5.58936 10.15C4.83311 10.15 4.21436 9.57903 4.21436 8.88122C4.21436 8.18341 4.83311 7.61248 5.58936 7.61248C6.34561 7.61248 6.96436 8.18341 6.96436 8.88122C6.96436 9.57903 6.34561 10.15 5.58936 10.15ZM7.72061 4.44061H3.45811V3.17186C3.45811 2.08709 4.41373 1.20531 5.58936 1.20531C6.76498 1.20531 7.72061 2.08709 7.72061 3.17186V4.44061Z" fill="#C5C5C5"/>
</svg>
