<svg width="17" height="17" viewBox="0 0 17 17" fill="none" xmlns="http://www.w3.org/2000/svg">
<path d="M9.81019 4.90651L8.56957 3.6406L4.08051 8.03997L8.47988 12.529L9.7458 11.2884L7.47581 8.96317L16.0709 9.0499L16.0889 7.27221L7.49375 7.18548L9.81019 4.90651ZM1.77768 16.0171L14.2215 16.1427C15.2081 16.1527 16.0072 15.3607 16.0171 14.383L16.053 10.8276L14.2753 10.8096L14.2394 14.365L1.79562 14.2395L1.92118 1.79564L14.365 1.92121L14.3291 5.47658L16.1068 5.49452L16.1427 1.93915C16.1525 0.961418 15.3695 0.153477 14.3829 0.143521L1.93912 0.0179559C0.961391 0.00809005 0.153359 0.799977 0.143494 1.77771L0.0179283 14.2215C0.00806251 15.1992 0.79995 16.0073 1.77768 16.0171Z" fill="#002C5B"/>
</svg>
