<svg width="84" height="86" viewBox="0 0 84 86" fill="none" xmlns="http://www.w3.org/2000/svg">
<g filter="url(#filter0_d)">
<line x1="40.0263" y1="46.7607" x2="40.0263" y2="41.5104" stroke="#002C5B" stroke-width="0.314136"/>
<line x1="43.8221" y1="46.7607" x2="43.8221" y2="41.5104" stroke="#002C5B" stroke-width="0.314136"/>
<line x1="36.296" y1="46.7607" x2="36.296" y2="43.9811" stroke="#002C5B" stroke-width="0.314136"/>
<line y1="-0.157068" x2="2.7796" y2="-0.157068" transform="matrix(0 -1 -1 0 47.5158 46.7607)" stroke="#002C5B" stroke-width="0.314136"/>
<line x1="21.5595" y1="43.9812" x2="21.5595" y2="46.7608" stroke="#002C5B" stroke-width="0.314136"/>
<line x1="32.6295" y1="46.7607" x2="32.6295" y2="44.7224" stroke="#002C5B" stroke-width="0.314136"/>
<line x1="28.8352" y1="46.7607" x2="28.8352" y2="44.7224" stroke="#002C5B" stroke-width="0.314136"/>
<line x1="25.1044" y1="46.7607" x2="25.1044" y2="44.7224" stroke="#002C5B" stroke-width="0.314136"/>
<line y1="-0.157068" x2="2.7796" y2="-0.157068" transform="matrix(0 1 1 0 62.567 43.9812)" stroke="#002C5B" stroke-width="0.314136"/>
<line y1="-0.157068" x2="2.03837" y2="-0.157068" transform="matrix(0 -1 -1 0 51.182 46.7607)" stroke="#002C5B" stroke-width="0.314136"/>
<line y1="-0.157068" x2="2.03837" y2="-0.157068" transform="matrix(0 -1 -1 0 54.9766 46.7607)" stroke="#002C5B" stroke-width="0.314136"/>
<line y1="-0.157068" x2="2.03837" y2="-0.157068" transform="matrix(0 -1 -1 0 58.7081 46.7607)" stroke="#002C5B" stroke-width="0.314136"/>
<rect x="20.5921" y="46.2556" width="1.86524" height="1.35892" fill="#1E83BB"/>
<rect x="24.2587" y="46.2556" width="1.86524" height="1.35892" fill="#1E83BB"/>
<rect x="27.9889" y="46.2556" width="1.86524" height="1.35892" fill="#1E83BB"/>
<rect x="31.7835" y="46.2556" width="1.86524" height="1.35892" fill="#1E83BB"/>
<rect x="35.4497" y="46.2556" width="1.86524" height="1.35892" fill="#1E83BB"/>
<rect x="39.1802" y="46.2556" width="1.86524" height="1.35892" fill="#1E83BB"/>
<rect width="1.86524" height="1.35892" transform="matrix(-1 0 0 1 63.429 46.2556)" fill="#1E83BB"/>
<rect width="1.86524" height="1.35892" transform="matrix(-1 0 0 1 59.7625 46.2556)" fill="#1E83BB"/>
<rect width="1.86524" height="1.35892" transform="matrix(-1 0 0 1 56.032 46.2556)" fill="#1E83BB"/>
<rect width="1.86524" height="1.35892" transform="matrix(-1 0 0 1 52.2369 46.2556)" fill="#1E83BB"/>
<rect width="1.86524" height="1.35892" transform="matrix(-1 0 0 1 48.5704 46.2556)" fill="#1E83BB"/>
<rect width="1.86524" height="1.35892" transform="matrix(-1 0 0 1 44.8409 46.2556)" fill="#1E83BB"/>
<path d="M12.0032 32.1462C12.0032 32.9666 11.3098 33.637 10.4476 33.637C9.58535 33.637 8.89195 32.9666 8.89195 32.1462C8.89195 31.3259 9.58535 30.6555 10.4476 30.6555C11.3098 30.6555 12.0032 31.3259 12.0032 32.1462Z" fill="#002C5B" stroke="#002C5B" stroke-width="0.159806"/>
<ellipse cx="10.4417" cy="32.1413" rx="0.919977" ry="0.883508" fill="white"/>
<path d="M12.0032 50.4297C12.0032 51.25 11.3098 51.9205 10.4476 51.9205C9.58535 51.9205 8.89195 51.25 8.89195 50.4297C8.89195 49.6094 9.58535 48.9389 10.4476 48.9389C11.3098 48.9389 12.0032 49.6094 12.0032 50.4297Z" fill="#002C5B" stroke="#002C5B" stroke-width="0.159806"/>
<ellipse cx="10.4417" cy="50.424" rx="0.919977" ry="0.883508" fill="white"/>
<path d="M12.0032 41.2878C12.0032 42.1082 11.3098 42.7786 10.4476 42.7786C9.58535 42.7786 8.89195 42.1082 8.89195 41.2878C8.89195 40.4675 9.58535 39.7971 10.4476 39.7971C11.3098 39.7971 12.0032 40.4675 12.0032 41.2878Z" fill="#002C5B" stroke="#002C5B" stroke-width="0.159806"/>
<ellipse cx="10.4417" cy="41.2829" rx="0.919977" ry="0.883508" fill="white"/>
<path d="M12.0032 23.0043C12.0032 23.8246 11.3098 24.4951 10.4476 24.4951C9.58535 24.4951 8.89195 23.8246 8.89195 23.0043C8.89195 22.184 9.58535 21.5135 10.4476 21.5135C11.3098 21.5135 12.0032 22.184 12.0032 23.0043Z" fill="#002C5B" stroke="#002C5B" stroke-width="0.159806"/>
<ellipse cx="10.4417" cy="22.999" rx="0.919977" ry="0.883508" fill="white"/>
<path d="M75.3564 41.2878C75.3564 42.1082 74.663 42.7786 73.8008 42.7786C72.9385 42.7786 72.2451 42.1082 72.2451 41.2878C72.2451 40.4675 72.9385 39.7971 73.8008 39.7971C74.663 39.7971 75.3564 40.4675 75.3564 41.2878Z" fill="#002C5B" stroke="#002C5B" stroke-width="0.159806"/>
<ellipse cx="73.7952" cy="41.2829" rx="0.919977" ry="0.883508" fill="white"/>
<path d="M75.3564 50.4297C75.3564 51.25 74.663 51.9205 73.8008 51.9205C72.9385 51.9205 72.2451 51.25 72.2451 50.4297C72.2451 49.6094 72.9385 48.9389 73.8008 48.9389C74.663 48.9389 75.3564 49.6094 75.3564 50.4297Z" fill="#002C5B" stroke="#002C5B" stroke-width="0.159806"/>
<ellipse cx="73.7952" cy="50.424" rx="0.919977" ry="0.883508" fill="white"/>
<path d="M75.3564 32.1462C75.3564 32.9666 74.663 33.637 73.8008 33.637C72.9385 33.637 72.2451 32.9666 72.2451 32.1462C72.2451 31.3259 72.9385 30.6555 73.8008 30.6555C74.663 30.6555 75.3564 31.3259 75.3564 32.1462Z" fill="#002C5B" stroke="#002C5B" stroke-width="0.159806"/>
<ellipse cx="73.7952" cy="32.1413" rx="0.919977" ry="0.883508" fill="white"/>
<path d="M75.3564 23.0043C75.3564 23.8246 74.663 24.4951 73.8008 24.4951C72.9385 24.4951 72.2451 23.8246 72.2451 23.0043C72.2451 22.184 72.9385 21.5135 73.8008 21.5135C74.663 21.5135 75.3564 22.184 75.3564 23.0043Z" fill="#002C5B" stroke="#002C5B" stroke-width="0.159806"/>
<ellipse cx="73.7952" cy="22.999" rx="0.919977" ry="0.883508" fill="white"/>
<path d="M12.0032 59.5717C12.0032 60.392 11.3098 61.0624 10.4476 61.0624C9.58535 61.0624 8.89195 60.392 8.89195 59.5717C8.89195 58.7513 9.58535 58.0809 10.4476 58.0809C11.3098 58.0809 12.0032 58.7513 12.0032 59.5717Z" fill="#002C5B" stroke="#002C5B" stroke-width="0.159806"/>
<ellipse cx="10.4417" cy="59.5666" rx="0.919977" ry="0.883508" fill="white"/>
<path d="M40.6247 76.4962C40.6247 77.3165 39.9313 77.987 39.069 77.987C38.2068 77.987 37.5134 77.3165 37.5134 76.4962C37.5134 75.6759 38.2068 75.0054 39.069 75.0054C39.9313 75.0054 40.6247 75.6759 40.6247 76.4962Z" fill="#002C5B" stroke="#002C5B" stroke-width="0.159806"/>
<ellipse cx="39.0635" cy="76.4907" rx="0.919977" ry="0.883508" fill="white"/>
<path d="M75.8062 59.5717C75.8062 60.392 75.1128 61.0624 74.2506 61.0624C73.3884 61.0624 72.695 60.392 72.695 59.5717C72.695 58.7513 73.3884 58.0809 74.2506 58.0809C75.1128 58.0809 75.8062 58.7513 75.8062 59.5717Z" fill="#002C5B" stroke="#002C5B" stroke-width="0.159806"/>
<ellipse cx="74.2455" cy="59.5666" rx="0.919977" ry="0.883508" fill="white"/>
<path d="M46.799 76.4962C46.799 77.3165 46.1056 77.987 45.2433 77.987C44.3811 77.987 43.6877 77.3165 43.6877 76.4962C43.6877 75.6759 44.3811 75.0054 45.2433 75.0054C46.1056 75.0054 46.799 75.6759 46.799 76.4962Z" fill="#002C5B" stroke="#002C5B" stroke-width="0.159806"/>
<ellipse cx="45.2375" cy="76.4907" rx="0.919977" ry="0.883508" fill="white"/>
<line x1="11.7705" y1="50.1845" x2="16.0155" y2="50.1845" stroke="#002C5B" stroke-width="0.314136"/>
<line y1="-0.157068" x2="6.21994" y2="-0.157068" transform="matrix(-0.00223659 -0.999997 0.999998 -0.00206278 16.0279 50.0731)" stroke="#002C5B" stroke-width="0.314136"/>
<line x1="11.7756" y1="41.1831" x2="14.5232" y2="41.1831" stroke="#002C5B" stroke-width="0.314136"/>
<line y1="-0.157068" x2="2.70138" y2="-0.157068" transform="matrix(-1 0 0 1 72.2434 41.3402)" stroke="#002C5B" stroke-width="0.314136"/>
<path d="M5.784 20.4449L42 0.179986L78.216 20.4449V60.9664L42 81.2314L5.784 60.9664V20.4449Z" stroke="black" stroke-width="0.314136"/>
<line x1="24.6878" y1="16.712" x2="24.6878" y2="34.5015" stroke="#002C5B" stroke-width="3.58115"/>
<line x1="44.0597" y1="16.712" x2="44.0597" y2="34.5015" stroke="#002C5B" stroke-width="3.58115"/>
<line x1="59.4726" y1="16.712" x2="59.4726" y2="34.5015" stroke="#002C5B" stroke-width="3.58115"/>
<line y1="-0.219895" x2="8.18231" y2="-0.219895" transform="matrix(0.671904 -0.740638 0.767144 0.641475 26.9692 25.5088)" stroke="#002C5B" stroke-width="0.439791"/>
<line y1="-0.219895" x2="9.44829" y2="-0.219895" transform="matrix(0.689631 0.724161 -0.751543 0.659684 43.7661 18.0315)" stroke="#002C5B" stroke-width="0.439791"/>
<line y1="-0.219895" x2="9.44829" y2="-0.219895" transform="matrix(-0.689631 0.724161 0.751543 0.659684 59.9556 18.2758)" stroke="#002C5B" stroke-width="0.439791"/>
<line y1="-0.219895" x2="9.96467" y2="-0.219895" transform="matrix(0.755004 0.65572 -0.685558 0.728018 26.9532 25.5079)" stroke="#002C5B" stroke-width="0.439791"/>
<path d="M35.1545 18.4398C35.1545 19.3422 34.3917 20.0797 33.4433 20.0797C32.4948 20.0797 31.732 19.3422 31.732 18.4398C31.732 17.5374 32.4948 16.7999 33.4433 16.7999C34.3917 16.7999 35.1545 17.5374 35.1545 18.4398Z" fill="#002C5B" stroke="#002C5B" stroke-width="0.175664"/>
<ellipse cx="33.4377" cy="18.4344" rx="1.01197" ry="0.971859" fill="white"/>
<path d="M37.5985 33.0788C37.5985 33.9812 36.8358 34.7187 35.8873 34.7187C34.9388 34.7187 34.1761 33.9812 34.1761 33.0788C34.1761 32.1764 34.9388 31.4389 35.8873 31.4389C36.8358 31.4389 37.5985 32.1764 37.5985 33.0788Z" fill="#002C5B" stroke="#002C5B" stroke-width="0.175664"/>
<ellipse cx="35.8819" cy="33.0733" rx="1.01197" ry="0.971859" fill="white"/>
<path d="M40.416 38.3253C40.416 39.1456 39.7226 39.8161 38.8604 39.8161C37.9982 39.8161 37.3048 39.1456 37.3048 38.3253C37.3048 37.505 37.9982 36.8345 38.8604 36.8345C39.7226 36.8345 40.416 37.505 40.416 38.3253Z" fill="#002C5B" stroke="#002C5B" stroke-width="0.159806"/>
<ellipse cx="38.8551" cy="38.3197" rx="0.919977" ry="0.883508" fill="white"/>
<path d="M17.7274 64.0186C17.7274 64.8389 17.034 65.5093 16.1718 65.5093C15.3096 65.5093 14.6162 64.8389 14.6162 64.0186C14.6162 63.1982 15.3096 62.5278 16.1718 62.5278C17.034 62.5278 17.7274 63.1982 17.7274 64.0186Z" fill="#002C5B" stroke="#002C5B" stroke-width="0.159806"/>
<ellipse cx="16.166" cy="64.0131" rx="0.919977" ry="0.883508" fill="white"/>
<path d="M23.4514 66.922C23.4514 67.7423 22.758 68.4128 21.8958 68.4128C21.0336 68.4128 20.3402 67.7423 20.3402 66.922C20.3402 66.1017 21.0336 65.4312 21.8958 65.4312C22.758 65.4312 23.4514 66.1017 23.4514 66.922Z" fill="#002C5B" stroke="#002C5B" stroke-width="0.159806"/>
<ellipse cx="21.8901" cy="66.9165" rx="0.919977" ry="0.883508" fill="white"/>
<path d="M29.1759 70.1337C29.1759 70.954 28.4825 71.6244 27.6203 71.6244C26.7581 71.6244 26.0647 70.954 26.0647 70.1337C26.0647 69.3134 26.7581 68.6429 27.6203 68.6429C28.4825 68.6429 29.1759 69.3134 29.1759 70.1337Z" fill="#002C5B" stroke="#002C5B" stroke-width="0.159806"/>
<ellipse cx="27.6147" cy="70.1286" rx="0.919977" ry="0.883508" fill="white"/>
<path d="M34.9001 73.3458C34.9001 74.1661 34.2068 74.8366 33.3445 74.8366C32.4823 74.8366 31.7889 74.1661 31.7889 73.3458C31.7889 72.5255 32.4823 71.855 33.3445 71.855C34.2068 71.855 34.9001 72.5255 34.9001 73.3458Z" fill="#002C5B" stroke="#002C5B" stroke-width="0.159806"/>
<ellipse cx="33.3389" cy="73.3405" rx="0.919977" ry="0.883508" fill="white"/>
<path d="M69.6964 64.0186C69.6964 64.8389 69.003 65.5093 68.1408 65.5093C67.2786 65.5093 66.5852 64.8389 66.5852 64.0186C66.5852 63.1982 67.2786 62.5278 68.1408 62.5278C69.003 62.5278 69.6964 63.1982 69.6964 64.0186Z" fill="#002C5B" stroke="#002C5B" stroke-width="0.159806"/>
<ellipse cx="68.1353" cy="64.0131" rx="0.919977" ry="0.883508" fill="white"/>
<path d="M63.9722 66.922C63.9722 67.7423 63.2788 68.4128 62.4166 68.4128C61.5544 68.4128 60.861 67.7423 60.861 66.922C60.861 66.1017 61.5544 65.4312 62.4166 65.4312C63.2788 65.4312 63.9722 66.1017 63.9722 66.922Z" fill="#002C5B" stroke="#002C5B" stroke-width="0.159806"/>
<ellipse cx="62.4111" cy="66.9165" rx="0.919977" ry="0.883508" fill="white"/>
<path d="M58.248 70.1337C58.248 70.954 57.5546 71.6244 56.6923 71.6244C55.8301 71.6244 55.1367 70.954 55.1367 70.1337C55.1367 69.3134 55.8301 68.6429 56.6923 68.6429C57.5546 68.6429 58.248 69.3134 58.248 70.1337Z" fill="#002C5B" stroke="#002C5B" stroke-width="0.159806"/>
<ellipse cx="56.6869" cy="70.1286" rx="0.919977" ry="0.883508" fill="white"/>
<path d="M52.5232 73.3458C52.5232 74.1661 51.8298 74.8366 50.9676 74.8366C50.1054 74.8366 49.412 74.1661 49.412 73.3458C49.412 72.5255 50.1054 71.855 50.9676 71.855C51.8298 71.855 52.5232 72.5255 52.5232 73.3458Z" fill="#002C5B" stroke="#002C5B" stroke-width="0.159806"/>
<ellipse cx="50.9618" cy="73.3405" rx="0.919977" ry="0.883508" fill="white"/>
<path d="M46.9764 38.3253C46.9764 39.1456 46.283 39.8161 45.4208 39.8161C44.5586 39.8161 43.8652 39.1456 43.8652 38.3253C43.8652 37.505 44.5586 36.8345 45.4208 36.8345C46.283 36.8345 46.9764 37.505 46.9764 38.3253Z" fill="#002C5B" stroke="#002C5B" stroke-width="0.159806"/>
<ellipse cx="45.4152" cy="38.3197" rx="0.919977" ry="0.883508" fill="white"/>
<path d="M52.508 41.7223C52.508 42.5426 51.8146 43.2131 50.9524 43.2131C50.0902 43.2131 49.3968 42.5426 49.3968 41.7223C49.3968 40.902 50.0902 40.2315 50.9524 40.2315C51.8146 40.2315 52.508 40.902 52.508 41.7223Z" fill="#002C5B" stroke="#002C5B" stroke-width="0.159806"/>
<ellipse cx="50.9466" cy="41.717" rx="0.919977" ry="0.883508" fill="white"/>
<path d="M34.8847 41.7223C34.8847 42.5426 34.1913 43.2131 33.3291 43.2131C32.4668 43.2131 31.7734 42.5426 31.7734 41.7223C31.7734 40.902 32.4668 40.2315 33.3291 40.2315C34.1913 40.2315 34.8847 40.902 34.8847 41.7223Z" fill="#002C5B" stroke="#002C5B" stroke-width="0.159806"/>
<ellipse cx="33.3235" cy="41.717" rx="0.919977" ry="0.883508" fill="white"/>
<path d="M53.6782 25.4812C53.6782 26.3836 52.9154 27.1211 51.967 27.1211C51.0185 27.1211 50.2557 26.3836 50.2557 25.4812C50.2557 24.5788 51.0185 23.8413 51.967 23.8413C52.9154 23.8413 53.6782 24.5788 53.6782 25.4812Z" fill="#002C5B" stroke="#002C5B" stroke-width="0.175664"/>
<ellipse cx="51.9613" cy="25.4763" rx="1.01197" ry="0.971859" fill="white"/>
<rect x="19.4954" y="47.5603" width="45.0093" height="13.2565" rx="0.938778" fill="#131111"/>
<rect x="20.5817" y="60.842" width="1.86524" height="1.35892" fill="#1E83BB"/>
<rect x="24.248" y="60.842" width="1.86524" height="1.35892" fill="#1E83BB"/>
<rect x="27.9785" y="60.842" width="1.86524" height="1.35892" fill="#1E83BB"/>
<rect x="31.773" y="60.842" width="1.86524" height="1.35892" fill="#1E83BB"/>
<rect x="35.4393" y="60.842" width="1.86524" height="1.35892" fill="#1E83BB"/>
<rect x="39.1695" y="60.842" width="1.86524" height="1.35892" fill="#1E83BB"/>
<rect width="1.86524" height="1.35892" transform="matrix(-1 0 0 1 63.4186 60.842)" fill="#1E83BB"/>
<rect width="1.86524" height="1.35892" transform="matrix(-1 0 0 1 59.7521 60.842)" fill="#1E83BB"/>
<rect width="1.86524" height="1.35892" transform="matrix(-1 0 0 1 56.0215 60.842)" fill="#1E83BB"/>
<rect width="1.86524" height="1.35892" transform="matrix(-1 0 0 1 52.2262 60.842)" fill="#1E83BB"/>
<rect width="1.86524" height="1.35892" transform="matrix(-1 0 0 1 48.56 60.842)" fill="#1E83BB"/>
<rect width="1.86524" height="1.35892" transform="matrix(-1 0 0 1 44.8306 60.842)" fill="#1E83BB"/>
<line y1="-0.157068" x2="2.24989" y2="-0.157068" transform="matrix(0.33426 0.942481 -0.950446 0.31089 39.1543 39.5339)" stroke="#002C5B" stroke-width="0.314136"/>
<line y1="-0.157068" x2="2.31753" y2="-0.157068" transform="matrix(-0.509018 0.860756 -0.877913 -0.478819 44.815 39.5339)" stroke="#002C5B" stroke-width="0.314136"/>
<line y1="-0.157068" x2="2.64907" y2="-0.157068" transform="matrix(-0.776949 -0.629564 0.660025 -0.751243 36.4531 43.9812)" stroke="#002C5B" stroke-width="0.314136"/>
<line y1="-0.157068" x2="2.64907" y2="-0.157068" transform="matrix(0.776949 -0.629564 -0.660025 -0.751243 47.5158 43.9812)" stroke="#002C5B" stroke-width="0.314136"/>
<line y1="-0.157068" x2="6.01869" y2="-0.157068" transform="matrix(1 0.000354242 -0.00038409 1 15.7006 43.979)" stroke="#002C5B" stroke-width="0.314136"/>
<line x1="30.343" y1="44.5658" x2="32.7871" y2="44.5658" stroke="#002C5B" stroke-width="0.314136"/>
<line x1="26.5485" y1="44.5658" x2="28.9926" y2="44.5658" stroke="#002C5B" stroke-width="0.314136"/>
<line x1="22.818" y1="44.5658" x2="25.2621" y2="44.5658" stroke="#002C5B" stroke-width="0.314136"/>
<line x1="30.3541" y1="44.7329" x2="30.3541" y2="37.8042" stroke="#002C5B" stroke-width="0.314136"/>
<line x1="26.5918" y1="44.7329" x2="26.5918" y2="39.4103" stroke="#002C5B" stroke-width="0.314136"/>
<line x1="22.8055" y1="44.7354" x2="22.8055" y2="41.2145" stroke="#002C5B" stroke-width="0.314136"/>
<line y1="-0.157068" x2="8.55437" y2="-0.157068" transform="matrix(1 1.42843e-05 -1.54879e-05 1 11.7705 22.9779)" stroke="#002C5B" stroke-width="0.314136"/>
<line x1="11.7705" y1="31.9624" x2="17.1089" y2="31.9624" stroke="#002C5B" stroke-width="0.314136"/>
<line y1="-0.157068" x2="14.9386" y2="-0.157068" transform="matrix(0.00217896 0.999998 -0.999998 0.00200963 20.0839 22.6803)" stroke="#002C5B" stroke-width="0.314136"/>
<line y1="-0.157068" x2="7.61999" y2="-0.157068" transform="matrix(0.0024094 0.999997 -0.999998 0.00222217 17.0748 31.7906)" stroke="#002C5B" stroke-width="0.314136"/>
<line x1="20.1165" y1="37.6475" x2="30.5361" y2="37.6475" stroke="#002C5B" stroke-width="0.314136"/>
<line x1="17.0932" y1="39.4386" x2="26.741" y2="39.4386" stroke="#002C5B" stroke-width="0.314136"/>
<line x1="14.5232" y1="41.1831" x2="22.949" y2="41.1831" stroke="#002C5B" stroke-width="0.314136"/>
<line y1="-0.157068" x2="4.24502" y2="-0.157068" transform="matrix(-1 0 0 1 72.2295 50.3416)" stroke="#002C5B" stroke-width="0.314136"/>
<line x1="68.1418" y1="50.0731" x2="68.1418" y2="44.0417" stroke="#002C5B" stroke-width="0.314136"/>
<line x1="68.2989" y1="43.8849" x2="62.2148" y2="43.8848" stroke="#002C5B" stroke-width="0.314136"/>
<line y1="-0.157068" x2="2.59333" y2="-0.157068" transform="matrix(-0.999992 -0.00410486 0.00445072 -0.99999 53.7523 44.4288)" stroke="#002C5B" stroke-width="0.314136"/>
<line x1="57.5697" y1="44.5759" x2="54.9529" y2="44.5759" stroke="#002C5B" stroke-width="0.314136"/>
<line y1="-0.157068" x2="2.4441" y2="-0.157068" transform="matrix(-1 0 0 1 61.1517 44.7229)" stroke="#002C5B" stroke-width="0.314136"/>
<line y1="-0.157068" x2="6.73281" y2="-0.157068" transform="matrix(0 -1 -1 0 53.4337 44.5374)" stroke="#002C5B" stroke-width="0.314136"/>
<line y1="-0.157068" x2="5.12682" y2="-0.157068" transform="matrix(0 -1 -1 0 57.2283 44.5374)" stroke="#002C5B" stroke-width="0.314136"/>
<line x1="61.0765" y1="44.7329" x2="61.0765" y2="41.0261" stroke="#002C5B" stroke-width="0.314136"/>
<line y1="-0.157068" x2="8.55437" y2="-0.157068" transform="matrix(-1 1.42843e-05 1.54879e-05 1 72.2295 22.9779)" stroke="#002C5B" stroke-width="0.314136"/>
<line y1="-0.157068" x2="5.36983" y2="-0.157068" transform="matrix(-0.999996 -0.00277648 0.00301042 -0.999995 72.2295 31.8054)" stroke="#002C5B" stroke-width="0.314136"/>
<line y1="-0.157068" x2="15.0014" y2="-0.157068" transform="matrix(0.000170883 1 -1 0.000157603 63.5234 22.6803)" stroke="#002C5B" stroke-width="0.314136"/>
<line y1="-0.157068" x2="7.61998" y2="-0.157068" transform="matrix(0.00211072 0.999998 -0.999998 0.00194669 66.5325 31.7906)" stroke="#002C5B" stroke-width="0.314136"/>
<line y1="-0.157068" x2="10.4196" y2="-0.157068" transform="matrix(-1 0 0 1 63.8529 37.8046)" stroke="#002C5B" stroke-width="0.314136"/>
<line y1="-0.157068" x2="9.64778" y2="-0.157068" transform="matrix(-1 0 0 1 66.8759 39.5957)" stroke="#002C5B" stroke-width="0.314136"/>
<line y1="-0.157068" x2="8.42573" y2="-0.157068" transform="matrix(-1 0 0 1 69.5771 41.3254)" stroke="#002C5B" stroke-width="0.314136"/>
<line x1="43.9575" y1="62.201" x2="43.9575" y2="71.8372" stroke="#002C5B" stroke-width="0.314136"/>
<line x1="47.688" y1="62.201" x2="47.688" y2="69.9222" stroke="#002C5B" stroke-width="0.314136"/>
<line x1="51.3543" y1="62.201" x2="51.3543" y2="67.8838" stroke="#002C5B" stroke-width="0.314136"/>
<line x1="62.5455" y1="62.201" x2="62.5455" y2="63.4364" stroke="#002C5B" stroke-width="0.314136"/>
<line x1="58.8473" y1="62.2007" x2="58.8473" y2="64.0548" stroke="#002C5B" stroke-width="0.314136"/>
<line x1="55.1824" y1="62.2007" x2="55.1824" y2="65.9073" stroke="#002C5B" stroke-width="0.314136"/>
<line x1="65.4405" y1="59.3599" x2="65.4405" y2="63.4366" stroke="#002C5B" stroke-width="0.314136"/>
<line x1="65.2829" y1="59.3571" x2="72.6155" y2="59.3571" stroke="#002C5B" stroke-width="0.314136"/>
<line x1="58.8514" y1="63.8971" x2="66.5053" y2="63.8971" stroke="#002C5B" stroke-width="0.314136"/>
<line x1="62.5179" y1="63.2798" x2="65.2836" y2="63.2798" stroke="#002C5B" stroke-width="0.314136"/>
<line y1="-0.157068" x2="3.31903" y2="-0.157068" transform="matrix(0.251923 0.967747 -0.972368 0.233455 43.8004 71.8369)" stroke="#002C5B" stroke-width="0.314136"/>
<line y1="-0.157068" x2="3.25353" y2="-0.157068" transform="matrix(0.672141 0.740423 -0.766748 0.641949 47.531 69.9222)" stroke="#002C5B" stroke-width="0.314136"/>
<line y1="-0.157068" x2="4.31593" y2="-0.157068" transform="matrix(0.953766 0.300549 -0.323318 0.94629 51.3255 67.884)" stroke="#002C5B" stroke-width="0.314136"/>
<line y1="-0.157068" x2="5.76453" y2="-0.157068" transform="matrix(0.993029 0.117869 -0.127644 0.99182 55.1212 65.9072)" stroke="#002C5B" stroke-width="0.314136"/>
<line y1="-0.157068" x2="9.63614" y2="-0.157068" transform="matrix(0 1 1 0 40.1993 62.201)" stroke="#002C5B" stroke-width="0.314136"/>
<line y1="-0.157068" x2="7.72111" y2="-0.157068" transform="matrix(0 1 1 0 36.4691 62.201)" stroke="#002C5B" stroke-width="0.314136"/>
<line y1="-0.157068" x2="5.68274" y2="-0.157068" transform="matrix(0 1 1 0 32.8026 62.201)" stroke="#002C5B" stroke-width="0.314136"/>
<line y1="-0.157068" x2="1.23538" y2="-0.157068" transform="matrix(0 1 1 0 21.611 62.201)" stroke="#002C5B" stroke-width="0.314136"/>
<line y1="-0.157068" x2="1.8541" y2="-0.157068" transform="matrix(0 1 1 0 25.3098 62.2007)" stroke="#002C5B" stroke-width="0.314136"/>
<line y1="-0.157068" x2="3.70665" y2="-0.157068" transform="matrix(0 1 1 0 28.9742 62.2007)" stroke="#002C5B" stroke-width="0.314136"/>
<line y1="-0.157068" x2="4.07675" y2="-0.157068" transform="matrix(0 1 1 0 18.7163 59.3599)" stroke="#002C5B" stroke-width="0.314136"/>
<line y1="-0.157068" x2="7.33259" y2="-0.157068" transform="matrix(-1 0 0 1 18.7172 59.5142)" stroke="#002C5B" stroke-width="0.314136"/>
<line y1="-0.157068" x2="7.6539" y2="-0.157068" transform="matrix(-1 0 0 1 25.1484 64.0542)" stroke="#002C5B" stroke-width="0.314136"/>
<line y1="-0.157068" x2="2.7657" y2="-0.157068" transform="matrix(-1 0 0 1 21.4819 63.4369)" stroke="#002C5B" stroke-width="0.314136"/>
<line y1="-0.157068" x2="3.31903" y2="-0.157068" transform="matrix(-0.251923 0.967747 0.972368 0.233455 40.1993 71.8369)" stroke="#002C5B" stroke-width="0.314136"/>
<line y1="-0.157068" x2="3.25353" y2="-0.157068" transform="matrix(-0.672141 0.740423 0.766748 0.641949 36.4691 69.9222)" stroke="#002C5B" stroke-width="0.314136"/>
<line y1="-0.157068" x2="4.31593" y2="-0.157068" transform="matrix(-0.953766 0.300549 0.323318 0.94629 32.6742 67.884)" stroke="#002C5B" stroke-width="0.314136"/>
<line y1="-0.157068" x2="5.76453" y2="-0.157068" transform="matrix(-0.993029 0.117869 0.127644 0.99182 28.8786 65.9072)" stroke="#002C5B" stroke-width="0.314136"/>
<path d="M29.2847 55.0737C29.2261 55.5745 29.0408 55.9615 28.7286 56.2346C28.4186 56.5056 28.0056 56.6411 27.4897 56.6411C26.9304 56.6411 26.4816 56.4406 26.1434 56.0395C25.8074 55.6384 25.6394 55.1019 25.6394 54.4299V53.9746C25.6394 53.5345 25.7174 53.1476 25.8735 52.8137C26.0318 52.4799 26.2551 52.2241 26.5434 52.0463C26.8317 51.8664 27.1656 51.7764 27.545 51.7764C28.0479 51.7764 28.4511 51.9173 28.7546 52.1991C29.0581 52.4788 29.2348 52.8668 29.2847 53.3633H28.6571C28.6029 52.9861 28.4847 52.7129 28.3026 52.5438C28.1227 52.3747 27.8701 52.2902 27.545 52.2902C27.1461 52.2902 26.8328 52.4376 26.6052 52.7324C26.3797 53.0273 26.267 53.4467 26.267 53.9909V54.4494C26.267 54.9632 26.3743 55.3718 26.5889 55.6753C26.8035 55.9788 27.1038 56.1306 27.4897 56.1306C27.8365 56.1306 28.1021 56.0525 28.2864 55.8964C28.4728 55.7382 28.5964 55.4639 28.6571 55.0737H29.2847ZM33.125 51.8414H33.7494V56.576H33.125V52.9275L30.7935 56.576H30.1659V51.8414H30.7935V55.4899L33.125 51.8414ZM38.3702 55.0737C38.3117 55.5745 38.1263 55.9615 37.8141 56.2346C37.5041 56.5056 37.0912 56.6411 36.5752 56.6411C36.0159 56.6411 35.5671 56.4406 35.229 56.0395C34.8929 55.6384 34.7249 55.1019 34.7249 54.4299V53.9746C34.7249 53.5345 34.803 53.1476 34.9591 52.8137C35.1173 52.4799 35.3406 52.2241 35.6289 52.0463C35.9173 51.8664 36.2511 51.7764 36.6305 51.7764C37.1334 51.7764 37.5366 51.9173 37.8401 52.1991C38.1437 52.4788 38.3203 52.8668 38.3702 53.3633H37.7426C37.6884 52.9861 37.5702 52.7129 37.3881 52.5438C37.2082 52.3747 36.9557 52.2902 36.6305 52.2902C36.2316 52.2902 35.9183 52.4376 35.6907 52.7324C35.4653 53.0273 35.3525 53.4467 35.3525 53.9909V54.4494C35.3525 54.9632 35.4598 55.3718 35.6745 55.6753C35.8891 55.9788 36.1893 56.1306 36.5752 56.1306C36.9221 56.1306 37.1876 56.0525 37.3719 55.8964C37.5583 55.7382 37.6819 55.4639 37.7426 55.0737H38.3702ZM42.3992 52.3552H40.8773V56.576H40.2562V52.3552H38.7376V51.8414H42.3992V52.3552ZM45.7778 54.3876H43.7259V56.0655H46.1095V56.576H43.1016V51.8414H46.077V52.3552H43.7259V53.8771H45.7778V54.3876ZM47.6931 51.8414L49.241 55.7046L50.7888 51.8414H51.5985V56.576H50.9742V54.7323L51.0327 52.7422L49.4783 56.576H49.0003L47.4492 52.7519L47.511 54.7323V56.576H46.8867V51.8414H47.6931ZM56.1835 55.0737C56.125 55.5745 55.9397 55.9615 55.6275 56.2346C55.3175 56.5056 54.9045 56.6411 54.3886 56.6411C53.8292 56.6411 53.3805 56.4406 53.0423 56.0395C52.7063 55.6384 52.5383 55.1019 52.5383 54.4299V53.9746C52.5383 53.5345 52.6163 53.1476 52.7724 52.8137C52.9307 52.4799 53.154 52.2241 53.4423 52.0463C53.7306 51.8664 54.0645 51.7764 54.4438 51.7764C54.9468 51.7764 55.35 51.9173 55.6535 52.1991C55.957 52.4788 56.1337 52.8668 56.1835 53.3633H55.556C55.5018 52.9861 55.3836 52.7129 55.2015 52.5438C55.0216 52.3747 54.769 52.2902 54.4438 52.2902C54.0449 52.2902 53.7317 52.4376 53.5041 52.7324C53.2786 53.0273 53.1659 53.4467 53.1659 53.9909V54.4494C53.1659 54.9632 53.2732 55.3718 53.4878 55.6753C53.7024 55.9788 54.0027 56.1306 54.3886 56.1306C54.7354 56.1306 55.001 56.0525 55.1852 55.8964C55.3717 55.7382 55.4953 55.4639 55.556 55.0737H56.1835Z" fill="white"/>
</g>
<defs>
<filter id="filter0_d" x="3.38693" y="0" width="77.2261" height="85.8914" filterUnits="userSpaceOnUse" color-interpolation-filters="sRGB">
<feFlood flood-opacity="0" result="BackgroundImageFix"/>
<feColorMatrix in="SourceAlpha" type="matrix" values="0 0 0 0 0 0 0 0 0 0 0 0 0 0 0 0 0 0 127 0"/>
<feOffset dy="2.24"/>
<feGaussianBlur stdDeviation="1.12"/>
<feColorMatrix type="matrix" values="0 0 0 0 0 0 0 0 0 0 0 0 0 0 0 0 0 0 0.25 0"/>
<feBlend mode="normal" in2="BackgroundImageFix" result="effect1_dropShadow"/>
<feBlend mode="normal" in="SourceGraphic" in2="effect1_dropShadow" result="shape"/>
</filter>
</defs>
</svg>
