<svg width="16" height="15" viewBox="0 0 16 15" fill="none" xmlns="http://www.w3.org/2000/svg">
<path d="M0.888889 8.33333H15.1111C15.6 8.33333 16 8.70833 16 9.16667V14.1667C16 14.625 15.6 15 15.1111 15H0.888889C0.400001 15 0 14.625 0 14.1667V9.16667C0 8.70833 0.400001 8.33333 0.888889 8.33333ZM12.4444 13.3333C13.4222 13.3333 14.2222 12.5833 14.2222 11.6667C14.2222 10.75 13.4222 10 12.4444 10C11.4667 10 10.6667 10.75 10.6667 11.6667C10.6667 12.5833 11.4667 13.3333 12.4444 13.3333ZM0.888889 0H15.1111C15.6 0 16 0.375 16 0.833333V5.83333C16 6.29167 15.6 6.66667 15.1111 6.66667H0.888889C0.400001 6.66667 0 6.29167 0 5.83333V0.833333C0 0.375 0.400001 0 0.888889 0ZM12.4444 5C13.4222 5 14.2222 4.25 14.2222 3.33333C14.2222 2.41667 13.4222 1.66667 12.4444 1.66667C11.4667 1.66667 10.6667 2.41667 10.6667 3.33333C10.6667 4.25 11.4667 5 12.4444 5Z" fill="#002C5B"/>
</svg>
