<svg width="22" height="15" viewBox="0 0 22 15" fill="none" xmlns="http://www.w3.org/2000/svg">
<path d="M15 6.42857C16.66 6.42857 17.99 4.99286 17.99 3.21429C17.99 1.43571 16.66 0 15 0C13.34 0 12 1.43571 12 3.21429C12 4.99286 13.34 6.42857 15 6.42857ZM7 6.42857C8.66 6.42857 9.99 4.99286 9.99 3.21429C9.99 1.43571 8.66 0 7 0C5.34 0 4 1.43571 4 3.21429C4 4.99286 5.34 6.42857 7 6.42857ZM7 8.57143C4.67 8.57143 0 9.825 0 12.3214L0 15H14V12.3214C14 9.825 9.33 8.57143 7 8.57143ZM15 8.57143C14.71 8.57143 14.38 8.59286 14.03 8.625C15.19 9.525 16 10.7357 16 12.3214V15H22V12.3214C22 9.825 17.33 8.57143 15 8.57143Z" fill="#002C5B"/>
</svg>
