<svg width="23" height="17" viewBox="0 0 23 17" fill="none" xmlns="http://www.w3.org/2000/svg">
<!-- <a href="http://ru.wikipedia.org/wiki/SVG" target="_top"> -->
<path d="M14.6364 8.5C16.9468 8.5 18.8182 6.59813 18.8182 4.25C18.8182 1.90188 16.9468 0 14.6364 0C12.3259 0 10.4545 1.90188 10.4545 4.25C10.4545 6.59813 12.3259 8.5 14.6364 8.5ZM5.22727 6.375V3.1875H3.13636V6.375H0L0 8.5H3.13636V11.6875H5.22727V8.5H8.36364V6.375H5.22727ZM14.6364 10.625C11.845 10.625 6.27273 12.0488 6.27273 14.875V17H23V14.875C23 12.0488 17.4277 10.625 14.6364 10.625Z" fill="#002C5B"/>
<!-- </a> -->
</svg>
