<svg width="230" height="222" viewBox="0 0 230 222" fill="none" xmlns="http://www.w3.org/2000/svg">
<line x1="109.148" y1="127.512" x2="109.148" y2="113.194" stroke="#C5C5C5" stroke-width="0.856615"/>
<line x1="119.498" y1="127.512" x2="119.498" y2="113.194" stroke="#C5C5C5" stroke-width="0.856615"/>
<line x1="98.9753" y1="127.512" x2="98.9753" y2="119.932" stroke="#C5C5C5" stroke-width="0.856615"/>
<line y1="-0.428308" x2="7.58004" y2="-0.428308" transform="matrix(0 -1 -1 0 129.57 127.512)" stroke="#C5C5C5" stroke-width="0.856615"/>
<line x1="58.7915" y1="119.932" x2="58.7915" y2="127.512" stroke="#C5C5C5" stroke-width="0.856615"/>
<line x1="88.9781" y1="127.512" x2="88.9781" y2="121.953" stroke="#C5C5C5" stroke-width="0.856615"/>
<line x1="78.6297" y1="127.512" x2="78.6297" y2="121.953" stroke="#C5C5C5" stroke-width="0.856615"/>
<line x1="68.458" y1="127.512" x2="68.458" y2="121.953" stroke="#C5C5C5" stroke-width="0.856615"/>
<line y1="-0.428308" x2="7.58004" y2="-0.428308" transform="matrix(0 1 1 0 170.613 119.932)" stroke="#C5C5C5" stroke-width="0.856615"/>
<line y1="-0.428308" x2="5.55869" y2="-0.428308" transform="matrix(0 -1 -1 0 139.568 127.512)" stroke="#C5C5C5" stroke-width="0.856615"/>
<line y1="-0.428308" x2="5.55869" y2="-0.428308" transform="matrix(0 -1 -1 0 149.916 127.512)" stroke="#C5C5C5" stroke-width="0.856615"/>
<line y1="-0.428308" x2="5.55869" y2="-0.428308" transform="matrix(0 -1 -1 0 160.091 127.512)" stroke="#C5C5C5" stroke-width="0.856615"/>
<rect x="56.1532" y="126.134" width="5.08655" height="3.7058" fill="#DADADA"/>
<rect x="66.1505" y="126.134" width="5.08655" height="3.7058" fill="#DADADA"/>
<rect x="76.3232" y="126.134" width="5.08655" height="3.7058" fill="#DADADA"/>
<rect x="86.6713" y="126.134" width="5.08655" height="3.7058" fill="#DADADA"/>
<rect x="96.6685" y="126.134" width="5.08655" height="3.7058" fill="#DADADA"/>
<rect x="106.841" y="126.134" width="5.08655" height="3.7058" fill="#DADADA"/>
<rect width="5.08655" height="3.7058" transform="matrix(-1 0 0 1 172.964 126.134)" fill="#DADADA"/>
<rect width="5.08655" height="3.7058" transform="matrix(-1 0 0 1 162.967 126.134)" fill="#DADADA"/>
<rect width="5.08655" height="3.7058" transform="matrix(-1 0 0 1 152.794 126.134)" fill="#DADADA"/>
<rect width="5.08655" height="3.7058" transform="matrix(-1 0 0 1 142.444 126.134)" fill="#DADADA"/>
<rect width="5.08655" height="3.7058" transform="matrix(-1 0 0 1 132.447 126.134)" fill="#DADADA"/>
<rect width="5.08655" height="3.7058" transform="matrix(-1 0 0 1 122.277 126.134)" fill="#DADADA"/>
<path d="M32.7317 87.6598C32.7317 89.8968 30.8408 91.7252 28.4895 91.7252C26.1382 91.7252 24.2473 89.8968 24.2473 87.6598C24.2473 85.4227 26.1382 83.5944 28.4895 83.5944C30.8408 83.5944 32.7317 85.4227 32.7317 87.6598Z" fill="#C5C5C5" stroke="#C5C5C5" stroke-width="0.435773"/>
<ellipse cx="28.4741" cy="87.6461" rx="2.5088" ry="2.40935" fill="white"/>
<path d="M32.7317 137.517C32.7317 139.754 30.8408 141.582 28.4895 141.582C26.1382 141.582 24.2473 139.754 24.2473 137.517C24.2473 135.28 26.1382 133.451 28.4895 133.451C30.8408 133.451 32.7317 135.28 32.7317 137.517Z" fill="#C5C5C5" stroke="#C5C5C5" stroke-width="0.435773"/>
<ellipse cx="28.4741" cy="137.501" rx="2.5088" ry="2.40935" fill="white"/>
<path d="M32.7317 112.588C32.7317 114.825 30.8408 116.653 28.4895 116.653C26.1382 116.653 24.2473 114.825 24.2473 112.588C24.2473 110.351 26.1382 108.522 28.4895 108.522C30.8408 108.522 32.7317 110.351 32.7317 112.588Z" fill="#C5C5C5" stroke="#C5C5C5" stroke-width="0.435773"/>
<ellipse cx="28.4741" cy="112.574" rx="2.5088" ry="2.40935" fill="white"/>
<path d="M32.7326 62.7338C32.7326 64.9709 30.8417 66.7992 28.4904 66.7992C26.1391 66.7992 24.2482 64.9709 24.2482 62.7338C24.2482 60.4968 26.1391 58.6684 28.4904 58.6684C30.8417 58.6684 32.7326 60.4968 32.7326 62.7338Z" fill="#C5C5C5" stroke="#C5C5C5" stroke-width="0.435773"/>
<ellipse cx="28.475" cy="62.7197" rx="2.5088" ry="2.40935" fill="white"/>
<path d="M205.49 112.588C205.49 114.825 203.599 116.653 201.247 116.653C198.896 116.653 197.005 114.825 197.005 112.588C197.005 110.351 198.896 108.522 201.247 108.522C203.599 108.522 205.49 110.351 205.49 112.588Z" fill="#C5C5C5" stroke="#C5C5C5" stroke-width="0.435773"/>
<ellipse cx="201.232" cy="112.574" rx="2.5088" ry="2.40935" fill="white"/>
<path d="M205.49 137.517C205.49 139.754 203.599 141.582 201.247 141.582C198.896 141.582 197.005 139.754 197.005 137.517C197.005 135.28 198.896 133.451 201.247 133.451C203.599 133.451 205.49 135.28 205.49 137.517Z" fill="#C5C5C5" stroke="#C5C5C5" stroke-width="0.435773"/>
<ellipse cx="201.232" cy="137.501" rx="2.5088" ry="2.40935" fill="white"/>
<path d="M205.49 87.6598C205.49 89.8968 203.599 91.7252 201.247 91.7252C198.896 91.7252 197.005 89.8968 197.005 87.6598C197.005 85.4227 198.896 83.5944 201.247 83.5944C203.599 83.5944 205.49 85.4227 205.49 87.6598Z" fill="#C5C5C5" stroke="#C5C5C5" stroke-width="0.435773"/>
<ellipse cx="201.232" cy="87.6461" rx="2.5088" ry="2.40935" fill="white"/>
<path d="M205.49 62.731C205.49 64.968 203.599 66.7964 201.247 66.7964C198.896 66.7964 197.005 64.968 197.005 62.731C197.005 60.4939 198.896 58.6656 201.247 58.6656C203.599 58.6656 205.49 60.4939 205.49 62.731Z" fill="#C5C5C5" stroke="#C5C5C5" stroke-width="0.435773"/>
<ellipse cx="201.232" cy="62.7168" rx="2.5088" ry="2.40935" fill="white"/>
<path d="M32.7317 162.445C32.7317 164.682 30.8408 166.511 28.4895 166.511C26.1382 166.511 24.2473 164.682 24.2473 162.445C24.2473 160.208 26.1382 158.38 28.4895 158.38C30.8408 158.38 32.7317 160.208 32.7317 162.445Z" fill="#C5C5C5" stroke="#C5C5C5" stroke-width="0.435773"/>
<ellipse cx="28.4741" cy="162.432" rx="2.5088" ry="2.40935" fill="white"/>
<path d="M110.78 208.597C110.78 210.834 108.889 212.663 106.538 212.663C104.187 212.663 102.296 210.834 102.296 208.597C102.296 206.36 104.187 204.532 106.538 204.532C108.889 204.532 110.78 206.36 110.78 208.597Z" fill="#C5C5C5" stroke="#C5C5C5" stroke-width="0.435773"/>
<ellipse cx="106.523" cy="208.582" rx="2.5088" ry="2.40935" fill="white"/>
<path d="M206.715 162.445C206.715 164.682 204.825 166.511 202.473 166.511C200.122 166.511 198.231 164.682 198.231 162.445C198.231 160.208 200.122 158.38 202.473 158.38C204.825 158.38 206.715 160.208 206.715 162.445Z" fill="#C5C5C5" stroke="#C5C5C5" stroke-width="0.435773"/>
<ellipse cx="202.459" cy="162.432" rx="2.5088" ry="2.40935" fill="white"/>
<path d="M127.616 208.597C127.616 210.834 125.725 212.663 123.374 212.663C121.022 212.663 119.132 210.834 119.132 208.597C119.132 206.36 121.022 204.532 123.374 204.532C125.725 204.532 127.616 206.36 127.616 208.597Z" fill="#C5C5C5" stroke="#C5C5C5" stroke-width="0.435773"/>
<ellipse cx="123.358" cy="208.582" rx="2.5088" ry="2.40935" fill="white"/>
<line x1="32.0969" y1="136.848" x2="43.6732" y2="136.848" stroke="#C5C5C5" stroke-width="0.856615"/>
<line y1="-0.428308" x2="16.9619" y2="-0.428308" transform="matrix(-0.00223659 -0.999997 0.999998 -0.00206278 43.7066 136.544)" stroke="#C5C5C5" stroke-width="0.856615"/>
<line x1="32.1116" y1="112.302" x2="39.6046" y2="112.302" stroke="#C5C5C5" stroke-width="0.856615"/>
<line y1="-0.428308" x2="7.36673" y2="-0.428308" transform="matrix(-1 0 0 1 197 112.731)" stroke="#C5C5C5" stroke-width="0.856615"/>
<path d="M15.7723 55.7511L114.529 0.4908L213.287 55.7511V166.249L114.529 221.509L15.7723 166.249V55.7511Z" stroke="#C5C5C5" stroke-width="0.856615"/>
<line x1="67.3233" y1="45.5742" x2="67.3233" y2="94.0864" stroke="#C5C5C5" stroke-width="9.76541"/>
<line x1="120.146" y1="45.5719" x2="120.146" y2="94.0841" stroke="#C5C5C5" stroke-width="9.76541"/>
<line x1="162.176" y1="45.5719" x2="162.176" y2="94.0841" stroke="#C5C5C5" stroke-width="9.76541"/>
<line y1="-0.599631" x2="22.3134" y2="-0.599631" transform="matrix(0.671904 -0.740638 0.767144 0.641475 73.5424 69.5601)" stroke="#C5C5C5" stroke-width="1.19926"/>
<line y1="-0.599631" x2="25.7657" y2="-0.599631" transform="matrix(0.689631 0.724161 -0.751543 0.659684 119.346 49.1698)" stroke="#C5C5C5" stroke-width="1.19926"/>
<line y1="-0.599631" x2="25.7657" y2="-0.599631" transform="matrix(-0.689631 0.724161 0.751543 0.659684 163.493 49.836)" stroke="#C5C5C5" stroke-width="1.19926"/>
<line y1="-0.599631" x2="27.1739" y2="-0.599631" transform="matrix(0.755004 0.65572 -0.685558 0.728018 73.4987 69.5573)" stroke="#C5C5C5" stroke-width="1.19926"/>
<path d="M95.8638 50.2835C95.8638 52.7444 93.7837 54.7556 91.1972 54.7556C88.6107 54.7556 86.5306 52.7444 86.5306 50.2835C86.5306 47.8227 88.6107 45.8114 91.1972 45.8114C93.7837 45.8114 95.8638 47.8227 95.8638 50.2835Z" fill="#C5C5C5" stroke="#C5C5C5" stroke-width="0.479017"/>
<ellipse cx="91.1818" cy="50.2692" rx="2.75968" ry="2.65028" fill="white"/>
<path d="M102.528 90.2027C102.528 92.6635 100.448 94.6748 97.8614 94.6748C95.2749 94.6748 93.1948 92.6635 93.1948 90.2027C93.1948 87.7419 95.2749 85.7306 97.8614 85.7306C100.448 85.7306 102.528 87.7419 102.528 90.2027Z" fill="#C5C5C5" stroke="#C5C5C5" stroke-width="0.479017"/>
<ellipse cx="97.8468" cy="90.1875" rx="2.75968" ry="2.65028" fill="white"/>
<path d="M110.21 104.509C110.21 106.746 108.319 108.574 105.968 108.574C103.617 108.574 101.726 106.746 101.726 104.509C101.726 102.272 103.617 100.443 105.968 100.443C108.319 100.443 110.21 102.272 110.21 104.509Z" fill="#C5C5C5" stroke="#C5C5C5" stroke-width="0.435773"/>
<ellipse cx="105.954" cy="104.494" rx="2.5088" ry="2.40935" fill="white"/>
<path d="M48.3411 174.572C48.3411 176.809 46.4502 178.638 44.0989 178.638C41.7476 178.638 39.8567 176.809 39.8567 174.572C39.8567 172.335 41.7476 170.507 44.0989 170.507C46.4502 170.507 48.3411 172.335 48.3411 174.572Z" fill="#C5C5C5" stroke="#C5C5C5" stroke-width="0.435773"/>
<ellipse cx="44.0831" cy="174.558" rx="2.5088" ry="2.40935" fill="white"/>
<path d="M63.9505 182.489C63.9505 184.726 62.0596 186.555 59.7083 186.555C57.357 186.555 55.4661 184.726 55.4661 182.489C55.4661 180.252 57.357 178.424 59.7083 178.424C62.0596 178.424 63.9505 180.252 63.9505 182.489Z" fill="#C5C5C5" stroke="#C5C5C5" stroke-width="0.435773"/>
<ellipse cx="59.6934" cy="182.474" rx="2.5088" ry="2.40935" fill="white"/>
<path d="M79.5596 191.248C79.5596 193.485 77.6687 195.313 75.3174 195.313C72.9661 195.313 71.0752 193.485 71.0752 191.248C71.0752 189.011 72.9661 187.182 75.3174 187.182C77.6687 187.182 79.5596 189.011 79.5596 191.248Z" fill="#C5C5C5" stroke="#C5C5C5" stroke-width="0.435773"/>
<ellipse cx="75.303" cy="191.233" rx="2.5088" ry="2.40935" fill="white"/>
<path d="M95.169 200.007C95.169 202.244 93.2781 204.072 90.9268 204.072C88.5755 204.072 86.6846 202.244 86.6846 200.007C86.6846 197.77 88.5755 195.941 90.9268 195.941C93.2781 195.941 95.169 197.77 95.169 200.007Z" fill="#C5C5C5" stroke="#C5C5C5" stroke-width="0.435773"/>
<ellipse cx="90.9113" cy="199.992" rx="2.5088" ry="2.40935" fill="white"/>
<path d="M190.056 174.572C190.056 176.809 188.165 178.638 185.813 178.638C183.462 178.638 181.571 176.809 181.571 174.572C181.571 172.335 183.462 170.507 185.813 170.507C188.165 170.507 190.056 172.335 190.056 174.572Z" fill="#C5C5C5" stroke="#C5C5C5" stroke-width="0.435773"/>
<ellipse cx="185.8" cy="174.558" rx="2.5088" ry="2.40935" fill="white"/>
<path d="M174.447 182.489C174.447 184.726 172.556 186.555 170.204 186.555C167.853 186.555 165.962 184.726 165.962 182.489C165.962 180.252 167.853 178.424 170.204 178.424C172.556 178.424 174.447 180.252 174.447 182.489Z" fill="#C5C5C5" stroke="#C5C5C5" stroke-width="0.435773"/>
<ellipse cx="170.19" cy="182.474" rx="2.5088" ry="2.40935" fill="white"/>
<path d="M158.837 191.248C158.837 193.485 156.946 195.313 154.595 195.313C152.244 195.313 150.353 193.485 150.353 191.248C150.353 189.011 152.244 187.182 154.595 187.182C156.946 187.182 158.837 189.011 158.837 191.248Z" fill="#C5C5C5" stroke="#C5C5C5" stroke-width="0.435773"/>
<ellipse cx="154.579" cy="191.233" rx="2.5088" ry="2.40935" fill="white"/>
<path d="M143.225 200.007C143.225 202.244 141.334 204.072 138.983 204.072C136.632 204.072 134.741 202.244 134.741 200.007C134.741 197.77 136.632 195.941 138.983 195.941C141.334 195.941 143.225 197.77 143.225 200.007Z" fill="#C5C5C5" stroke="#C5C5C5" stroke-width="0.435773"/>
<ellipse cx="138.968" cy="199.992" rx="2.5088" ry="2.40935" fill="white"/>
<path d="M128.1 104.509C128.1 106.746 126.209 108.574 123.858 108.574C121.507 108.574 119.616 106.746 119.616 104.509C119.616 102.272 121.507 100.443 123.858 100.443C126.209 100.443 128.1 102.272 128.1 104.509Z" fill="#C5C5C5" stroke="#C5C5C5" stroke-width="0.435773"/>
<ellipse cx="123.843" cy="104.494" rx="2.5088" ry="2.40935" fill="white"/>
<path d="M143.184 113.773C143.184 116.01 141.293 117.838 138.942 117.838C136.591 117.838 134.7 116.01 134.7 113.773C134.7 111.536 136.591 109.707 138.942 109.707C141.293 109.707 143.184 111.536 143.184 113.773Z" fill="#C5C5C5" stroke="#C5C5C5" stroke-width="0.435773"/>
<ellipse cx="138.926" cy="113.758" rx="2.5088" ry="2.40935" fill="white"/>
<path d="M95.1278 113.773C95.1278 116.01 93.2369 117.838 90.8856 117.838C88.5343 117.838 86.6434 116.01 86.6434 113.773C86.6434 111.536 88.5343 109.707 90.8856 109.707C93.2369 109.707 95.1278 111.536 95.1278 113.773Z" fill="#C5C5C5" stroke="#C5C5C5" stroke-width="0.435773"/>
<ellipse cx="90.8698" cy="113.758" rx="2.5088" ry="2.40935" fill="white"/>
<path d="M146.376 69.4851C146.376 71.9459 144.296 73.9572 141.709 73.9572C139.123 73.9572 137.043 71.9459 137.043 69.4851C137.043 67.0242 139.123 65.0129 141.709 65.0129C144.296 65.0129 146.376 67.0242 146.376 69.4851Z" fill="#C5C5C5" stroke="#C5C5C5" stroke-width="0.479017"/>
<ellipse cx="141.694" cy="69.4715" rx="2.75968" ry="2.65028" fill="white"/>
<rect x="53.1875" y="129.5" width="122.736" height="36.1492" rx="2.55995" fill="#C5C5C5"/>
<rect x="56.1238" y="165.91" width="5.08655" height="3.7058" fill="#DADADA"/>
<rect x="66.1211" y="165.91" width="5.08655" height="3.7058" fill="#DADADA"/>
<rect x="76.2939" y="165.91" width="5.08655" height="3.7058" fill="#DADADA"/>
<rect x="86.6414" y="165.91" width="5.08655" height="3.7058" fill="#DADADA"/>
<rect x="96.6386" y="165.91" width="5.08655" height="3.7058" fill="#DADADA"/>
<rect x="106.811" y="165.91" width="5.08655" height="3.7058" fill="#DADADA"/>
<rect width="5.08655" height="3.7058" transform="matrix(-1 0 0 1 172.935 165.91)" fill="#DADADA"/>
<rect width="5.08655" height="3.7058" transform="matrix(-1 0 0 1 162.938 165.91)" fill="#DADADA"/>
<rect width="5.08655" height="3.7058" transform="matrix(-1 0 0 1 152.766 165.91)" fill="#DADADA"/>
<rect width="5.08655" height="3.7058" transform="matrix(-1 0 0 1 142.415 165.91)" fill="#DADADA"/>
<rect width="5.08655" height="3.7058" transform="matrix(-1 0 0 1 132.418 165.91)" fill="#DADADA"/>
<rect width="5.08655" height="3.7058" transform="matrix(-1 0 0 1 122.247 165.91)" fill="#DADADA"/>
<line y1="-0.428308" x2="6.13551" y2="-0.428308" transform="matrix(0.33426 0.942481 -0.950446 0.31089 106.77 107.805)" stroke="#C5C5C5" stroke-width="0.856615"/>
<line y1="-0.428308" x2="6.31996" y2="-0.428308" transform="matrix(-0.509018 0.860756 -0.877913 -0.478819 122.206 107.805)" stroke="#C5C5C5" stroke-width="0.856615"/>
<line y1="-0.428308" x2="7.22409" y2="-0.428308" transform="matrix(-0.776949 -0.629564 0.660025 -0.751243 99.4036 119.932)" stroke="#C5C5C5" stroke-width="0.856615"/>
<line y1="-0.428308" x2="7.22409" y2="-0.428308" transform="matrix(0.776949 -0.629564 -0.660025 -0.751243 129.57 119.932)" stroke="#C5C5C5" stroke-width="0.856615"/>
<line y1="-0.428308" x2="16.4131" y2="-0.428308" transform="matrix(1 0.000354242 -0.00038409 1 42.8143 119.926)" stroke="#C5C5C5" stroke-width="0.856615"/>
<line x1="82.743" y1="121.526" x2="89.4082" y2="121.526" stroke="#C5C5C5" stroke-width="0.856615"/>
<line x1="72.3949" y1="121.526" x2="79.06" y2="121.526" stroke="#C5C5C5" stroke-width="0.856615"/>
<line x1="62.2221" y1="121.526" x2="68.8872" y2="121.526" stroke="#C5C5C5" stroke-width="0.856615"/>
<line x1="82.7726" y1="121.982" x2="82.7726" y2="103.087" stroke="#C5C5C5" stroke-width="0.856615"/>
<line x1="72.5145" y1="121.982" x2="72.5145" y2="107.467" stroke="#C5C5C5" stroke-width="0.856615"/>
<line x1="62.1888" y1="121.989" x2="62.1888" y2="112.387" stroke="#C5C5C5" stroke-width="0.856615"/>
<line y1="-0.428308" x2="23.328" y2="-0.428308" transform="matrix(1 1.42843e-05 -1.54879e-05 1 32.0978 62.6617)" stroke="#C5C5C5" stroke-width="0.856615"/>
<line x1="32.0969" y1="87.1584" x2="46.655" y2="87.1584" stroke="#C5C5C5" stroke-width="0.856615"/>
<line y1="-0.428308" x2="40.7379" y2="-0.428308" transform="matrix(0.00217896 0.999998 -0.999998 0.00200963 54.7697 61.8508)" stroke="#C5C5C5" stroke-width="0.856615"/>
<line y1="-0.428308" x2="20.7799" y2="-0.428308" transform="matrix(0.0024094 0.999997 -0.999998 0.00222217 46.5611 86.6893)" stroke="#C5C5C5" stroke-width="0.856615"/>
<line x1="54.8567" y1="102.66" x2="83.2712" y2="102.66" stroke="#C5C5C5" stroke-width="0.856615"/>
<line x1="46.611" y1="107.545" x2="72.9208" y2="107.545" stroke="#C5C5C5" stroke-width="0.856615"/>
<line x1="39.6035" y1="112.302" x2="62.5807" y2="112.302" stroke="#C5C5C5" stroke-width="0.856615"/>
<line y1="-0.428308" x2="11.5763" y2="-0.428308" transform="matrix(-1 0 0 1 196.962 137.276)" stroke="#C5C5C5" stroke-width="0.856615"/>
<line x1="185.816" y1="136.544" x2="185.816" y2="120.097" stroke="#C5C5C5" stroke-width="0.856615"/>
<line x1="186.245" y1="119.669" x2="169.653" y2="119.669" stroke="#C5C5C5" stroke-width="0.856615"/>
<line y1="-0.428308" x2="7.07208" y2="-0.428308" transform="matrix(-0.999992 -0.00410486 0.00445072 -0.99999 146.576 121.153)" stroke="#C5C5C5" stroke-width="0.856615"/>
<line x1="156.987" y1="121.554" x2="149.851" y2="121.554" stroke="#C5C5C5" stroke-width="0.856615"/>
<line y1="-0.428308" x2="6.66513" y2="-0.428308" transform="matrix(-1 0 0 1 166.753 121.954)" stroke="#C5C5C5" stroke-width="0.856615"/>
<line y1="-0.428308" x2="18.3605" y2="-0.428308" transform="matrix(0 -1 -1 0 145.708 121.448)" stroke="#C5C5C5" stroke-width="0.856615"/>
<line y1="-0.428308" x2="13.981" y2="-0.428308" transform="matrix(0 -1 -1 0 156.055 121.448)" stroke="#C5C5C5" stroke-width="0.856615"/>
<line x1="166.549" y1="121.982" x2="166.549" y2="111.874" stroke="#C5C5C5" stroke-width="0.856615"/>
<line y1="-0.428308" x2="23.328" y2="-0.428308" transform="matrix(-1 1.42843e-05 1.54879e-05 1 196.962 62.6587)" stroke="#C5C5C5" stroke-width="0.856615"/>
<line y1="-0.428308" x2="14.6437" y2="-0.428308" transform="matrix(-0.999996 -0.00277648 0.00301042 -0.999995 196.962 86.73)" stroke="#C5C5C5" stroke-width="0.856615"/>
<line y1="-0.428308" x2="40.9091" y2="-0.428308" transform="matrix(0.000170883 1 -1 0.000157603 173.222 61.8478)" stroke="#C5C5C5" stroke-width="0.856615"/>
<line y1="-0.428308" x2="20.7799" y2="-0.428308" transform="matrix(0.00211072 0.999998 -0.999998 0.00194669 181.427 86.6893)" stroke="#C5C5C5" stroke-width="0.856615"/>
<line y1="-0.428308" x2="28.4145" y2="-0.428308" transform="matrix(-1 0 0 1 174.121 103.089)" stroke="#C5C5C5" stroke-width="0.856615"/>
<line y1="-0.428308" x2="26.3097" y2="-0.428308" transform="matrix(-1 0 0 1 182.363 107.973)" stroke="#C5C5C5" stroke-width="0.856615"/>
<line y1="-0.428308" x2="22.9772" y2="-0.428308" transform="matrix(-1 0 0 1 189.73 112.69)" stroke="#C5C5C5" stroke-width="0.856615"/>
<line x1="119.868" y1="169.616" x2="119.868" y2="195.894" stroke="#C5C5C5" stroke-width="0.856615"/>
<line x1="130.04" y1="169.616" x2="130.04" y2="190.671" stroke="#C5C5C5" stroke-width="0.856615"/>
<line x1="140.038" y1="169.616" x2="140.038" y2="185.113" stroke="#C5C5C5" stroke-width="0.856615"/>
<line x1="170.555" y1="169.616" x2="170.555" y2="172.985" stroke="#C5C5C5" stroke-width="0.856615"/>
<line x1="160.47" y1="169.614" x2="160.47" y2="174.67" stroke="#C5C5C5" stroke-width="0.856615"/>
<line x1="150.477" y1="169.615" x2="150.477" y2="179.723" stroke="#C5C5C5" stroke-width="0.856615"/>
<line x1="178.45" y1="161.868" x2="178.45" y2="172.985" stroke="#C5C5C5" stroke-width="0.856615"/>
<line x1="178.02" y1="161.861" x2="198.016" y2="161.861" stroke="#C5C5C5" stroke-width="0.856615"/>
<line x1="160.482" y1="174.241" x2="181.355" y2="174.241" stroke="#C5C5C5" stroke-width="0.856615"/>
<line x1="170.479" y1="172.556" x2="178.021" y2="172.556" stroke="#C5C5C5" stroke-width="0.856615"/>
<line y1="-0.428308" x2="9.05108" y2="-0.428308" transform="matrix(0.251923 0.967747 -0.972368 0.233455 119.44 195.892)" stroke="#C5C5C5" stroke-width="0.856615"/>
<line y1="-0.428308" x2="8.87245" y2="-0.428308" transform="matrix(0.672141 0.740423 -0.766748 0.641949 129.612 190.67)" stroke="#C5C5C5" stroke-width="0.856615"/>
<line y1="-0.428308" x2="11.7696" y2="-0.428308" transform="matrix(0.953766 0.300549 -0.323318 0.94629 139.96 185.112)" stroke="#C5C5C5" stroke-width="0.856615"/>
<line y1="-0.428308" x2="15.72" y2="-0.428308" transform="matrix(0.993029 0.117869 -0.127644 0.99182 150.31 179.722)" stroke="#C5C5C5" stroke-width="0.856615"/>
<line y1="-0.428308" x2="26.278" y2="-0.428308" transform="matrix(0 1 1 0 109.619 169.616)" stroke="#C5C5C5" stroke-width="0.856615"/>
<line y1="-0.428308" x2="21.0557" y2="-0.428308" transform="matrix(0 1 1 0 99.4468 169.616)" stroke="#C5C5C5" stroke-width="0.856615"/>
<line y1="-0.428308" x2="15.497" y2="-0.428308" transform="matrix(0 1 1 0 89.4493 169.616)" stroke="#C5C5C5" stroke-width="0.856615"/>
<line y1="-0.428308" x2="3.36891" y2="-0.428308" transform="matrix(0 1 1 0 58.9321 169.616)" stroke="#C5C5C5" stroke-width="0.856615"/>
<line y1="-0.428308" x2="5.05617" y2="-0.428308" transform="matrix(0 1 1 0 69.0171 169.614)" stroke="#C5C5C5" stroke-width="0.856615"/>
<line y1="-0.428308" x2="10.1081" y2="-0.428308" transform="matrix(0 1 1 0 79.01 169.615)" stroke="#C5C5C5" stroke-width="0.856615"/>
<line y1="-0.428308" x2="11.1174" y2="-0.428308" transform="matrix(0 1 1 0 51.0376 161.868)" stroke="#C5C5C5" stroke-width="0.856615"/>
<line y1="-0.428308" x2="19.9962" y2="-0.428308" transform="matrix(-1 0 0 1 51.0402 162.289)" stroke="#C5C5C5" stroke-width="0.856615"/>
<line y1="-0.428308" x2="20.8724" y2="-0.428308" transform="matrix(-1 0 0 1 68.5775 174.669)" stroke="#C5C5C5" stroke-width="0.856615"/>
<line y1="-0.428308" x2="7.54212" y2="-0.428308" transform="matrix(-1 0 0 1 58.5803 172.985)" stroke="#C5C5C5" stroke-width="0.856615"/>
<line y1="-0.428308" x2="9.05108" y2="-0.428308" transform="matrix(-0.251923 0.967747 0.972368 0.233455 109.619 195.892)" stroke="#C5C5C5" stroke-width="0.856615"/>
<line y1="-0.428308" x2="8.87245" y2="-0.428308" transform="matrix(-0.672141 0.740423 0.766748 0.641949 99.4468 190.67)" stroke="#C5C5C5" stroke-width="0.856615"/>
<line y1="-0.428308" x2="11.7696" y2="-0.428308" transform="matrix(-0.953766 0.300549 0.323318 0.94629 89.0984 185.112)" stroke="#C5C5C5" stroke-width="0.856615"/>
<line y1="-0.428308" x2="15.72" y2="-0.428308" transform="matrix(-0.993029 0.117869 0.127644 0.99182 78.7492 179.722)" stroke="#C5C5C5" stroke-width="0.856615"/>
<path d="M82.683 150.497C82.5233 151.863 82.0179 152.918 81.1666 153.663C80.3213 154.402 79.1952 154.771 77.7882 154.771C76.263 154.771 75.0393 154.224 74.1171 153.131C73.2009 152.037 72.7427 150.574 72.7427 148.741V147.5C72.7427 146.3 72.9555 145.245 73.3812 144.334C73.8127 143.424 74.4216 142.726 75.2078 142.242C75.9941 141.751 76.9044 141.506 77.9389 141.506C79.3104 141.506 80.41 141.89 81.2376 142.658C82.0652 143.421 82.547 144.479 82.683 145.833H80.9716C80.8238 144.804 80.5016 144.059 80.005 143.598C79.5144 143.137 78.8257 142.907 77.9389 142.907C76.8512 142.907 75.997 143.309 75.3763 144.113C74.7615 144.917 74.4541 146.06 74.4541 147.544V148.795C74.4541 150.196 74.7467 151.31 75.332 152.138C75.9172 152.965 76.736 153.379 77.7882 153.379C78.7341 153.379 79.4582 153.166 79.9607 152.74C80.4691 152.309 80.806 151.561 80.9716 150.497H82.683ZM93.1552 141.683H94.8578V154.594H93.1552V144.645L86.7974 154.594H85.086V141.683H86.7974V151.632L93.1552 141.683ZM107.458 150.497C107.299 151.863 106.793 152.918 105.942 153.663C105.097 154.402 103.97 154.771 102.563 154.771C101.038 154.771 99.8146 154.224 98.8924 153.131C97.9761 152.037 97.518 150.574 97.518 148.741V147.5C97.518 146.3 97.7308 145.245 98.1564 144.334C98.5879 143.424 99.1968 142.726 99.9831 142.242C100.769 141.751 101.68 141.506 102.714 141.506C104.086 141.506 105.185 141.89 106.013 142.658C106.84 143.421 107.322 144.479 107.458 145.833H105.747C105.599 144.804 105.277 144.059 104.78 143.598C104.29 143.137 103.601 142.907 102.714 142.907C101.626 142.907 100.772 143.309 100.152 144.113C99.5367 144.917 99.2293 146.06 99.2293 147.544V148.795C99.2293 150.196 99.522 151.31 100.107 152.138C100.692 152.965 101.511 153.379 102.563 153.379C103.509 153.379 104.233 153.166 104.736 152.74C105.244 152.309 105.581 151.561 105.747 150.497H107.458ZM118.445 143.084H114.295V154.594H112.601V143.084H108.46V141.683H118.445V143.084ZM127.658 148.626H122.063V153.202H128.562V154.594H120.36V141.683H128.474V143.084H122.063V147.234H127.658V148.626ZM132.881 141.683L137.102 152.217L141.322 141.683H143.53V154.594H141.828V149.566L141.987 144.139L137.749 154.594H136.445L132.216 144.166L132.384 149.566V154.594H130.682V141.683H132.881ZM156.033 150.497C155.874 151.863 155.368 152.918 154.517 153.663C153.672 154.402 152.545 154.771 151.139 154.771C149.613 154.771 148.39 154.224 147.467 153.131C146.551 152.037 146.093 150.574 146.093 148.741V147.5C146.093 146.3 146.306 145.245 146.731 144.334C147.163 143.424 147.772 142.726 148.558 142.242C149.344 141.751 150.255 141.506 151.289 141.506C152.661 141.506 153.76 141.89 154.588 142.658C155.416 143.421 155.897 144.479 156.033 145.833H154.322C154.174 144.804 153.852 144.059 153.355 143.598C152.865 143.137 152.176 142.907 151.289 142.907C150.202 142.907 149.347 143.309 148.727 144.113C148.112 144.917 147.804 146.06 147.804 147.544V148.795C147.804 150.196 148.097 151.31 148.682 152.138C149.268 152.965 150.086 153.379 151.139 153.379C152.084 153.379 152.809 153.166 153.311 152.74C153.819 152.309 154.156 151.561 154.322 150.497H156.033Z" fill="white"/>
</svg>
